<?xml version="1.0" encoding="utf-8"?>
<!-- Generator: Adobe Illustrator 23.0.3, SVG Export Plug-In . SVG Version: 6.00 Build 0)  -->
<svg version="1.1" id="Layer_1" xmlns="http://www.w3.org/2000/svg" xmlns:xlink="http://www.w3.org/1999/xlink" x="0px" y="0px"
	 viewBox="0 0 500 500" style="enable-background:new 0 0 500 500;" xml:space="preserve">
<style type="text/css">
	.st0{fill:#535353;}
</style>
<g transform="matrix(1, 0, 0, 1, 136.331621, 222.341968)">
</g>
<g id="aperture" transform="matrix(1, 0, 0, 1, 136.331621, 222.341968)">
	<g>
		<path class="st0" d="M193.8-7.4l86.1-146.2C236.7-193.9,179.3-219,115.6-219c-15.1,0-29.7,1.8-44.1,4.4L193.8-7.4z"/>
		<path class="st0" d="M175.4,83.7h173.7c5-19.4,8.6-39.5,8.6-60.5c0-58.6-21.6-111.6-56.3-153.5L175.4,83.7z"/>
		<path class="st0" d="M123.1-67.6L41.3-206.1C-26.8-184-81.8-133.5-108.5-67.6H123.1z"/>
		<path class="st0" d="M110,113.9l81.6,137.9c67.3-22.5,121.6-72.6,148.1-137.9H110z"/>
		<path class="st0" d="M56.6-37.4h-174.6c-5.1,19.4-8.6,39.5-8.6,60.5c0,58.9,21.9,112.1,56.8,154.1L56.6-37.4z"/>
		<path class="st0" d="M38.7,52.8l-86.9,147.6c43.2,39.8,100.4,64.8,163.8,64.8c15.8,0,31.1-1.8,46-4.6L38.7,52.8z"/>
	</g>
</g>
</svg>
